<svg width="42" height="42" fill="none" xmlns="http://www.w3.org/2000/svg"><g clip-path="url('#clip0_32_653')"><path d="M0 0v42h42V0H0Zm6.527 17.355H17.21a4.715 4.715 0 0 1 3.123 1.238c.81.8 1.286 1.948 1.31 3.176-.005.944-.184 2.03-.81 2.897-.438.59-1.123 1.035-1.88 1.29v.1c.797.198 1.581.624 2.14 1.327.666.86.894 2.021.913 3.164-.008 1.211-.427 2.509-1.366 3.47-.834.82-2.033 1.29-3.294 1.316H6.527V17.355Zm18.723.036h7.947v2.948H25.25V17.39Zm3.804 3.83c1.11 0 2.093.144 2.951.433.866.28 1.594.72 2.187 1.315.592.587 1.04 1.335 1.343 2.245.4 1.192.477 2.717.469 4.11h-9.239c0 .952.19 1.692.57 2.22.386.519 1.02.777 1.901.777.837-.004 1.817-.273 2.14-1.213.084-.247.126-.509.126-.79h4.502c-.01 1.43-.47 2.851-1.677 3.904-1.333 1.085-3.196 1.394-4.988 1.428-1.109 0-2.111-.14-3.007-.42-.889-.29-1.644-.732-2.266-1.328-.623-.595-1.102-1.344-1.436-2.245-.334-.91-.502-1.986-.502-3.228 0-1.208.163-2.261.49-3.163.326-.902.789-1.65 1.389-2.246a5.749 5.749 0 0 1 2.186-1.353c.858-.298 1.813-.446 2.861-.446Zm-17.377.076v3.061h3.542c.32-.002.624-.148.854-.407.224-.273.334-.632.341-1.008v-.256a1.678 1.678 0 0 0-.354-.982c-.2-.237-.502-.39-.84-.407h-3.543Zm17.56 3.24c-.783 0-1.367.21-1.754.626-.38.417-.611.983-.695 1.697h4.532c0-.723-.181-1.288-.546-1.697-.364-.417-.877-.625-1.538-.625Zm-17.56 3.536v3.073h3.917a1.2 1.2 0 0 0 .853-.394c.223-.272.338-.632.344-1.008v-.269a1.638 1.638 0 0 0-.344-.995 1.21 1.21 0 0 0-.853-.407h-3.917Z" fill="#474747"/></g><defs><clipPath id="clip0_32_653"><rect width="42" height="42" rx="10" fill="#fff"/></clipPath></defs></svg>