<svg width="27" height="22" fill="none" xmlns="http://www.w3.org/2000/svg"><path d="M8.481 21.939c10.19 0 15.763-8.443 15.763-15.751 0-.237 0-.476-.01-.713A11.282 11.282 0 0 0 27 2.603a11.235 11.235 0 0 1-3.188.874A5.57 5.57 0 0 0 26.254.411a11.024 11.024 0 0 1-3.522 1.338 5.545 5.545 0 0 0-9.443 5.053A15.736 15.736 0 0 1 1.87 1.015 5.55 5.55 0 0 0 3.589 8.41a5.608 5.608 0 0 1-2.508-.689v.076a5.548 5.548 0 0 0 4.441 5.43 5.404 5.404 0 0 1-1.46.195 5.458 5.458 0 0 1-1.035-.096A5.54 5.54 0 0 0 8.2 17.168a11.117 11.117 0 0 1-6.885 2.374c-.44.002-.88-.023-1.316-.076a15.768 15.768 0 0 0 8.481 2.473Z" fill="#000"/></svg>