<svg width="42" height="42" fill="none" xmlns="http://www.w3.org/2000/svg"><g clip-path="url('#clip0_32_651')"><path d="M0 0v42h42V0H0Zm10.3 8.257c1.664.019 3.302 1.166 3.374 3.153.035 1.767-1.504 3.112-3.417 3.153h-.047c-1.647-.019-3.255-1.195-3.33-3.153.024-1.747 1.492-3.112 3.42-3.153Zm17.847 8.347c1.829.011 3.555.554 4.973 2 1.474 1.643 1.947 3.909 2 6.213v10.48h-6.04V25.53c-.013-1.83-.64-4.056-3.063-4.13-1.42.015-2.422.84-3.107 2.22-.187.444-.214.954-.223 1.464v10.213H16.65c.023-5.106.055-10.211.043-15.317 0-1.45-.014-2.427-.043-2.93h6.037v2.573c.512-.728 1.08-1.42 1.843-1.976 1.034-.738 2.276-1.02 3.617-1.043Zm-20.91.446h6.037v18.247H7.237V17.05Z" fill="#474747"/></g><defs><clipPath id="clip0_32_651"><rect width="42" height="42" rx="10" fill="#fff"/></clipPath></defs></svg>