<svg width="65" height="29" fill="none" xmlns="http://www.w3.org/2000/svg"><path fill="#fff" d="M0 .055h7.222v28.889H0z"/><path fill="#fff" d="M0 .055h7.222v28.889H0zM21.667.055h7.222v28.889h-7.222z"/><path fill="#fff" d="M21.667.055h7.222v28.889h-7.222zM36.111.055h7.222v28.889h-7.222z"/><path fill="#fff" d="M36.111.055h7.222v28.889h-7.222z"/><path fill-rule="evenodd" clip-rule="evenodd" d="M21.43.055 0 28.945h9.188L28.95 2.303 25.713.055H21.43Z" fill="#fff"/><path fill-rule="evenodd" clip-rule="evenodd" d="M21.43.055 0 28.945h9.188L28.95 2.303 25.713.055H21.43ZM64.92.168 65 .055H43.336v7.223h16.25L64.92.168Z" fill="#fff"/><path fill-rule="evenodd" clip-rule="evenodd" d="M64.92.168 65 .055H43.336v7.223h16.25L64.92.168ZM54.17 14.5H43.336v7.222h5.417L54.17 14.5Z" fill="#fff"/><path fill-rule="evenodd" clip-rule="evenodd" d="M54.17 14.5H43.336v7.222h5.417L54.17 14.5Z" fill="#fff"/></svg>