<svg width="1200" height="153" fill="none" xmlns="http://www.w3.org/2000/svg"><path fill="#fff" d="M.007 0h33.18v130.102H.007z"/><path fill="#fff" d="M.007 0h33.18v130.102H.007zM100.651 0h33.18v130.102h-33.18z"/><path fill="#fff" d="M100.651 0h33.18v130.102h-33.18zM167.01 0h34.286v130.102H167.01z"/><path fill="#fff" d="M167.01 0h34.286v130.102H167.01zM723.76 0l27.755 20.007-85.504 112.273h-44.809L723.76 0Z"/><path d="m723.76 0 27.755 20.007-85.504 112.273h-44.809L723.76 0Z" fill="#fff"/><path fill="#fff" d="M798.177 0v33.059h-74.47V-.001z"/><path fill="#fff" d="M798.177 0v33.059h-74.47V-.001zM798.16 63.613v33.059H690.51v-33.06z"/><path fill="#fff" d="M798.16 63.613v33.059H690.51v-33.06z"/><path fill="#fff" d="M798.16 97.044h-34.286V1.424h34.286z"/><path fill="#fff" d="M798.16 97.044h-34.286V1.424h34.286zM1132.9 0h34.286v130.102H1132.9z"/><path fill="#fff" d="M1132.9 0h34.286v130.102H1132.9z"/><path fill="#fff" d="M1200 0v33.059h-99.54V-.001z"/><path fill="#fff" d="M1200 0v33.059h-99.54V-.001zM831.339 0h34.654v130.102h-34.654z"/><path fill="#fff" d="M831.339 0h34.654v130.102h-34.654zM896.592 0h34.286v131.169h-34.286z"/><path fill="#fff" d="M896.592 0h34.286v131.169h-34.286z"/><path fill="#fff" d="M924.98 98.127v33.06h-93.642v-33.06z"/><path fill="#fff" d="M924.98 98.127v33.06h-93.642v-33.06zM1067.28 98.127v33.06h-99.539v-33.06z"/><path fill="#fff" d="M1067.28 98.127v33.06h-99.539v-33.06zM1067.28 0v33.059h-99.538V-.002h99.538Z"/><path d="M1067.28 0v33.059h-99.538V-.002h99.538ZM1018.43 98.112l48.85-.004-51.49-65.032h-48.202l50.842 65.036Z" fill="#fff"/><path d="m1018.43 98.112 48.85-.004-51.49-65.032h-48.202l50.842 65.036ZM924.979 0v33.059h-93.641V-.001z" fill="#fff"/><path fill="#fff" d="M924.979 0v33.059h-93.641V-.001zM369.405 0h33.18v130.102h-33.18z"/><path fill="#fff" d="M369.405 0h33.18v130.102h-33.18zM234.475 0h33.18v130.102h-33.18z"/><path fill="#fff" d="M234.475 0h33.18v130.102h-33.18z"/><path fill="#fff" d="M334.014 97.044v33.06h-99.539v-33.06z"/><path fill="#fff" d="M334.014 97.044v33.06h-99.539v-33.06zM334.013 0v33.059h-99.54V-.001z"/><path fill="#fff" d="M334.013 0v33.059h-99.54V-.001z"/><path fill-rule="evenodd" clip-rule="evenodd" d="M99.602.334 0 129.803h42.707l91.863-119.41L119.545.334H99.602Z" fill="#fff"/><path fill-rule="evenodd" clip-rule="evenodd" d="M99.602.334 0 129.803h42.707l91.863-119.41L119.545.334H99.602ZM403.492 45.01l-28.188 18.874 51.085 66.405h42.708l-65.605-85.278Z" fill="#fff"/><path fill-rule="evenodd" clip-rule="evenodd" d="m403.492 45.01-28.188 18.874 51.085 66.405h42.708l-65.605-85.278ZM714.274 68.618l-28.188 18.874 34.447 44.777h42.707l-48.966-63.65Z" fill="#fff"/><path fill-rule="evenodd" clip-rule="evenodd" d="m714.274 68.618-28.188 18.874 34.447 44.777h42.707l-48.966-63.65ZM407.698 79.824 379.51 60.951 426.4 0h42.707l-61.409 79.824Z" fill="#fff"/><path fill-rule="evenodd" clip-rule="evenodd" d="M407.698 79.824 379.51 60.951 426.4 0h42.707l-61.409 79.824Z" fill="#fff"/><path fill="#fff" d="M546.732 0h34.286v130.102h-34.286z"/><path fill="#fff" d="M546.732 0h34.286v130.102h-34.286z"/><path fill-rule="evenodd" clip-rule="evenodd" d="M581.021 0h102.843l-.641.86-25.048 32.203h-77.154V0Z" fill="#fff"/><path fill-rule="evenodd" clip-rule="evenodd" d="M581.021 0h102.843l-.641.86-25.048 32.203h-77.154V0ZM632.465 66.115h-51.444V99.18h25.727l25.717-33.064Z" fill="#fff"/><path fill-rule="evenodd" clip-rule="evenodd" d="M632.465 66.115h-51.444V99.18h25.727l25.717-33.064Z" fill="#fff"/></svg>